<svg id="Capa_1" data-name="Capa 1" xmlns="http://www.w3.org/2000/svg" viewBox="0 0 790.59 749.93"><defs><style>.cls-1{fill:#fff;}.cls-2{fill:#383838;}</style></defs><path class="cls-1" d="M147,199.19c.12-14.46.21-28.92.35-43.37.24-24.16,15.36-39.21,39.42-39.25,18.59,0,37.19-.12,55.78,0a56.43,56.43,0,0,0,34.61-11.19c25-18.26,50.27-36.17,75.25-54.46,20.32-14.88,40.81-15.7,62.38-2.66,65.87,39.82,128.62,83.64,181.54,140.19,4.46,4.77,8.73,9.74,12.82,14.83,11.09,13.84,12.1,28.79,3.19,44.1-17.5,30-13,52.76,15,73.29,8.18,6,12.57,14.22,15.94,23.32a18.94,18.94,0,0,1-.06,14c-7,27.59-15.59,54.55-30.43,79.2-36.53,60.72-89.24,99.32-157.63,117.47-11.7,3.1-23.83,2.12-35.22,6.06-6.08,2.06-12.22,1.26-18.36.42H393.3c-6.15.86-12.3,1.66-18.38-.42-29.38-3.48-57.3-12.53-85-22.28a25.72,25.72,0,0,1-12.27.08C258,543.14,247,556.64,246.93,576.63c-.11,31-.18,61.93.16,92.9.18,16.13-5,29.39-19.64,36.92-14,7.18-27.91,5.3-41-3.47-16-10.76-32.18-21.41-38.57-41.19-3-2.83-1.5-6.48-1.51-9.7-.13-30.45-.08-60.9-.08-91.35V255.13C146.73,236.48,145.46,217.82,147,199.19Z"/><path class="cls-2" d="M576.19,311l.31-.1L535,176.56h-8.46L568.07,311H462l41.53-134.47H495l-41.68,135,.34.1C459.6,334,484.78,350.8,515,350.8c30.51,0,55.89-17.12,61.51-39.77Z"/><path class="cls-2" d="M284.25,176.56h-8.46L317.31,311H211.21l41.52-134.47h-8.46l-41.5,134.37.32.1h-.33c5.61,22.65,31,39.77,61.51,39.77,30.23,0,55.41-16.82,61.32-39.18l.34-.1Z"/><rect class="cls-2" x="375.77" y="147.43" width="6.03" height="414.02"/><rect class="cls-2" x="191.02" y="164.58" width="381.55" height="11.97"/></svg>